<svg width="34" height="34" viewBox="0 0 34 34" fill="none" xmlns="http://www.w3.org/2000/svg">
<path d="M28.39 30.16H20.76V22.35H25C25.2652 22.35 25.5196 22.2446 25.7071 22.0571C25.8947 21.8696 26 21.6152 26 21.35V12.78C26 12.5148 25.8947 12.2604 25.7071 12.0729C25.5196 11.8854 25.2652 11.78 25 11.78H20.76V4H28.39C29.8116 4 31.1749 4.56471 32.1801 5.56991C33.1853 6.5751 33.75 7.93844 33.75 9.36V24.8C33.75 26.2216 33.1853 27.5849 32.1801 28.5901C31.1749 29.5953 29.8116 30.16 28.39 30.16Z" fill="black"/>
<path d="M5.36 30.16H13V22.35H8.78C8.51478 22.35 8.26043 22.2446 8.07289 22.0571C7.88536 21.8696 7.78 21.6152 7.78 21.35V12.78C7.78 12.5148 7.88536 12.2604 8.07289 12.0729C8.26043 11.8854 8.51478 11.78 8.78 11.78H13V4H5.36C3.93844 4 2.5751 4.56471 1.56991 5.56991C0.564713 6.5751 0 7.93844 0 9.36L0 24.8C0 26.2216 0.564713 27.5849 1.56991 28.5901C2.5751 29.5953 3.93844 30.16 5.36 30.16Z" fill="black"/>
</svg>
