<svg xmlns="http://www.w3.org/2000/svg" viewBox="0 0 73.28 26.16">
    <g id="Слой_2" data-name="Слой 2">
        <g id="Слой_1-2" data-name="Слой 1">
            <rect id="l_h" data-name="l h" x="53.48" y="0.01" width="7.81" height="26.14"/>
            <rect id="l_v" data-name="l v" x="59.47" y="12.34" width="7.81" height="19.8"
                  transform="translate(85.62 -41.14) rotate(90)"/>
            <rect id="i" x="39.71" y="0.01" width="7.81" height="7.81" transform="translate(87.23 7.84) rotate(180)"/>
            <path id="left_o" data-name="left o"
                  d="M28.39,26.16H20.76V18.35H25a1,1,0,0,0,1-1V8.78a1,1,0,0,0-1-1H20.76V0h7.63a5.36,5.36,0,0,1,5.36,5.36V20.8A5.36,5.36,0,0,1,28.39,26.16Z"/>
            <path id="right_o" data-name="right o"
                  d="M5.36,26.16H13V18.35H8.78a1,1,0,0,1-1-1V8.78a1,1,0,0,1,1-1H13V0H5.36A5.36,5.36,0,0,0,0,5.36V20.8A5.36,5.36,0,0,0,5.36,26.16Z"/>
        </g>
    </g>
</svg>